<svg xmlns="http://www.w3.org/2000/svg" viewBox="0 0 237.269 88.106">
  <defs>
    <style>
      .cls-1, .cls-4 {
        fill: none;
        stroke: #fff;
        stroke-miterlimit: 10;
      }

      .cls-1 {
        stroke-width: 2.723px;
      }

      .cls-2, .cls-3 {
        fill: #fff;
      }

      .cls-3 {
        font-size: 32px;
      }

      .cls-3, .cls-4 {
        font-family: GillSans-UltraBold, Gill Sans;
        font-weight: 700;
      }

      .cls-4 {
        stroke-width: 1.5px;
        font-size: 29px;
      }
    </style>
  </defs>
  <g id="Bookio_Transparent_logo" data-name="Bookio Transparent logo" transform="translate(112.885 43.297)">
    <g id="Group_70" data-name="Group 70" transform="translate(-112.885 -43.297)">
      <g id="Group_69" data-name="Group 69">
        <path id="Path_33" data-name="Path 33" class="cls-1" d="M53.154,38.838l.209-4.927H87.23V110.3l-37.259,3.79.313-7.407" transform="translate(-19.471 -27.497)"/>
        <g id="Group_68" data-name="Group 68">
          <path id="Path_34" data-name="Path 34" class="cls-2" d="M79.735,80.751l3.018-1.062q.055-.555.054-1.125c-.928-.071-1.853-.179-2.771-.315A12.71,12.71,0,0,1,79.735,80.751Z" transform="translate(-28.923 -41.738)"/>
          <path id="Path_35" data-name="Path 35" class="cls-2" d="M79.059,83.454l3.218-1.134c.049-.2.1-.407.142-.618l-3.152,1.11C79.2,83.028,79.137,83.245,79.059,83.454Z" transform="translate(-28.708 -42.848)"/>
          <path id="Path_36" data-name="Path 36" class="cls-2" d="M79.762,77.253l-.037.075v.063h.014Z" transform="translate(-28.92 -41.418)"/>
          <path id="Path_37" data-name="Path 37" class="cls-2" d="M76.685,87.68c-.127.172-.257.339-.394.5l3.744-1.065c.156-.254.308-.51.445-.776Z" transform="translate(-27.829 -44.338)"/>
          <path id="Path_38" data-name="Path 38" class="cls-2" d="M77.932,85.817l3.528-1.243c.068-.178.124-.363.185-.543l-3.387,1.193C78.159,85.425,78.047,85.62,77.932,85.817Z" transform="translate(-28.35 -43.595)"/>
          <path id="Path_39" data-name="Path 39" class="cls-2" d="M65.1,106.511a2.522,2.522,0,0,1,.44-.13,1.6,1.6,0,0,0-2.025.746,1.621,1.621,0,0,0,.014,1.548,2.553,2.553,0,0,1,1.571-2.164Z" transform="translate(-23.711 -50.736)"/>
          <path id="Path_40" data-name="Path 40" class="cls-2" d="M75.749,89.038l-4.163,1.184a12.315,12.315,0,0,1-6.512,2.923,11.068,11.068,0,0,0,10.675-4.107Z" transform="translate(-24.267 -45.204)"/>
          <path id="Path_41" data-name="Path 41" class="cls-2" d="M67.165,107.693a1.673,1.673,0,0,0-1.3-.012,1.742,1.742,0,0,0-.717,2.687l.347.348a1.708,1.708,0,0,0,.341.2,1.666,1.666,0,0,0,1.3.013,1.762,1.762,0,0,0,.955-2.275,1.721,1.721,0,0,0-.927-.96Z" transform="translate(-24.174 -51.152)"/>
          <path id="Path_42" data-name="Path 42" class="cls-2" d="M41.141,83.418l2.32-.815c-.041-.235-.075-.472-.106-.709l-2.4.846C41.011,82.966,41.073,83.193,41.141,83.418Z" transform="translate(-16.608 -42.909)"/>
          <path id="Path_43" data-name="Path 43" class="cls-2" d="M49.045,93.733A16.373,16.373,0,0,1,45.528,88.7l-1.816.639a16.4,16.4,0,0,0,2.8,3.394,17.62,17.62,0,0,0,6.229,3.7,16.242,16.242,0,0,1-3.693-2.705Z" transform="translate(-17.484 -45.095)"/>
          <path id="Path_44" data-name="Path 44" class="cls-2" d="M5.28,24.462,26.211,102.6l47.661,4.665.856-59.983ZM48.548,84.993a2.493,2.493,0,0,1-1.927-.018,2.527,2.527,0,0,1-.555-.339h0l-.038-.039a2.5,2.5,0,0,1-.369-.371L44.63,83.194A2.469,2.469,0,0,1,46.3,79.177a2.429,2.429,0,0,1,1.632.45l1.211.926-.015.019a2.533,2.533,0,0,1,.832,1.09,2.575,2.575,0,0,1-1.41,3.33ZM64.22,60.967A16.311,16.311,0,0,1,48.382,77.676h0q-.61.032-1.213.032a19.525,19.525,0,0,1-13.424-5.015,16.578,16.578,0,0,1-5.38-11.4l-.051-.024L28.352,61v-.013h0l.008-.064a.447.447,0,0,1,.423-.352l.513-.01a39.877,39.877,0,0,1,7.316.528l.124.041.277.145-.068.339a11.286,11.286,0,0,0,3.405,7.813,11.121,11.121,0,0,0,3.559,2.343,11.982,11.982,0,0,0,8.673-3.376,10.864,10.864,0,0,0,3-7.641l-.03-.014.035-.2v-.088H55.6l.068-.38.36-.035.505-.011a39.673,39.673,0,0,1,7.316.529l.1.031.295.132-.045.258Z" transform="translate(-5.28 -24.462)"/>
          <path id="Path_45" data-name="Path 45" class="cls-2" d="M75.786,78.848q-.391.008-.783.008c-.751,0-1.5-.029-2.252-.068A12.03,12.03,0,0,1,61.059,90.835h-.24a11.771,11.771,0,0,1-8.271-3.382,12.081,12.081,0,0,1-3.63-8.078l-.367.007q-.391.008-.783.008c-.757,0-1.514-.029-2.271-.072a15.574,15.574,0,0,0,4.691,10.645,15.178,15.178,0,0,0,10.938,4.344A15.484,15.484,0,0,0,76.171,78.84Z" transform="translate(-18.051 -41.911)"/>
          <path id="Path_46" data-name="Path 46" class="cls-2" d="M44.019,84.893q-.105-.381-.192-.768l-2.221.783q.136.371.287.734Z" transform="translate(-16.815 -43.625)"/>
          <path id="Path_47" data-name="Path 47" class="cls-2" d="M44.835,87.207q-.154-.4-.288-.8l-2.027.713q.186.386.394.763Z" transform="translate(-17.105 -44.358)"/>
          <path id="Path_48" data-name="Path 48" class="cls-2" d="M40.572,81.024l2.494-.878q-.031-.392-.043-.787c-.9-.068-1.806-.176-2.7-.308a14.65,14.65,0,0,0,.25,1.974Z" transform="translate(-16.407 -41.995)"/>
        </g>
      </g>
      <g id="bookio_text" transform="translate(102.144 24.192)">
        <text id="Book" class="cls-3" transform="translate(0 32)"><tspan x="0" y="0">Book</tspan></text>
        <text id="io" class="cls-4" transform="translate(100.625 30.33)"><tspan x="0" y="0">io</tspan></text>
      </g>
    </g>
  </g>
</svg>
